<?xml version="1.0" ?><svg data-name="Layer 1" id="Layer_1" viewBox="0 0 24 24" xmlns="http://www.w3.org/2000/svg"><defs><style>.cls-1{fill:#b47250;}</style></defs><path class="cls-1" d="M12.69,21.77l-.28-.12a.6.6,0,0,0-.26-.2.54.54,0,0,0-.28,0,1.45,1.45,0,0,0-.35,0c-.38-.05-.91-.19-1.49-.28.55-.07.84-.14.91-.29.17-.37-.28-.91-.49-1.11a1.42,1.42,0,0,0-.34-.25L10,19.48l-.08,0-.26-.12a1.13,1.13,0,0,0-.56-.16l0,0s0,.1,0,.33c0,.06,0,.08,0,.14a1.34,1.34,0,0,1,0,.21s0,0,0,.1a1.12,1.12,0,0,1-.17.39.63.63,0,0,1-.54.16.91.91,0,0,0,.43.66.73.73,0,0,0,.32.09v.26s0,.08,0,.11A.43.43,0,0,0,9.4,22a12.3,12.3,0,0,0,2.08,0,1.54,1.54,0,0,0,.32,0,1.57,1.57,0,0,0,.42,0h0c.15,0,.37.06.47.06h.49a.16.16,0,0,0,.18-.18Z"/><path class="cls-1" d="M16.23,18.13a14.51,14.51,0,0,0-.46-4.59l0-.06a.69.69,0,0,0-.06-.13h0a.53.53,0,0,0-.3-.29l-.52-.2a7.14,7.14,0,0,0-3.27-.37l-.48.08A4.36,4.36,0,0,0,11,9a4.33,4.33,0,0,0,.48-2,4.22,4.22,0,0,0-.67-2.21c.23,0,.49-.1.56-.28s.05-.34-.2-.66.05-.52-.12-.94a3.48,3.48,0,0,0-.2-.42C11,2,10.64,2,10.64,2l-.29,2.78C10.07,6.09,9.81,7.49,9.58,9c-.26,1.72-.45,3.36-.59,4.91a9.87,9.87,0,0,0-.88,1.51,2.93,2.93,0,0,0-.34,1,2.27,2.27,0,0,0,.28,1.31,2.33,2.33,0,0,0,.4.5l.11.09A2.61,2.61,0,0,1,8.8,19.4c0,.17-.15.2-.28.21s-.24,0-.29.17a.64.64,0,0,0,.09.6c.08.09.4,0,.46-.15a1.44,1.44,0,0,0,.11-1,.28.28,0,0,1,0-.25s.08,0,.18,0h0l.15,0a1.82,1.82,0,0,1,.39.11l.27.12v-.17l0-.29c0-.08,0-.16.08-.24s0,0,0-.06a2,2,0,0,0,.06-.28,2.82,2.82,0,0,0,0-.91,3,3,0,0,0-.18-.66,1.73,1.73,0,0,1-.1-.33h0v-.06a1,1,0,0,1,0-.23v0a2.23,2.23,0,0,1,.08-.7v0a2.24,2.24,0,0,0,1.44.35,3.69,3.69,0,0,0,1.34-.65,4.48,4.48,0,0,1,2.15-.52,3.11,3.11,0,0,0-.23,1.51,3.28,3.28,0,0,0,1.27,2.2c-.48.11-.61.25-.63.36s0,.29.27.53,0,.46.2.82a2.53,2.53,0,0,0,.22.35c-.17.44.23.46.23.46A23.56,23.56,0,0,0,16.23,18.13Z"/></svg>